<?xml version="1.0" encoding="UTF-8" standalone="no"?>
<!-- Created with Inkscape (http://www.inkscape.org/) -->

<svg
   version="1.1"
   id="svg53"
   width="1396.1115"
   height="1432.1687"
   viewBox="0 0 1396.1115 1432.1687"
   sodipodi:docname="swift-white-svg-master.svg"
   inkscape:version="1.1.2 (0a00cf5339, 2022-02-04)"
   xmlns:inkscape="http://www.inkscape.org/namespaces/inkscape"
   xmlns:sodipodi="http://sodipodi.sourceforge.net/DTD/sodipodi-0.dtd"
   xmlns="http://www.w3.org/2000/svg"
   xmlns:svg="http://www.w3.org/2000/svg">
  <defs
     id="defs57" />
  <sodipodi:namedview
     id="namedview55"
     pagecolor="#ffffff"
     bordercolor="#666666"
     borderopacity="1.0"
     inkscape:pageshadow="2"
     inkscape:pageopacity="0.0"
     inkscape:pagecheckerboard="0"
     showgrid="false"
     fit-margin-top="0"
     fit-margin-left="0"
     fit-margin-right="0"
     fit-margin-bottom="0"
     inkscape:zoom="0.22454464"
     inkscape:cx="1249.1948"
     inkscape:cy="748.18085"
     inkscape:window-width="1920"
     inkscape:window-height="1027"
     inkscape:window-x="0"
     inkscape:window-y="24"
     inkscape:window-maximized="1"
     inkscape:current-layer="g59" />
  <g
     inkscape:groupmode="layer"
     inkscape:label="Image"
     id="g59"
     transform="translate(-1585.2322,-834.40973)">
    <path
       style="fill:#000000;fill-opacity:1"
       d="m 2261.7625,2266.2897 c -25.2794,-0.711 -40.1556,-1.9139 -67.2935,-5.4414 -252.1593,-32.7765 -468.0474,-205.6761 -561.5966,-449.7692 -31.7747,-82.9082 -47.6482,-169.5489 -47.6402,-260.0296 0.01,-90.3105 15.1751,-175.002 46.0506,-257.1411 70.6771,-188.0251 215.7321,-337.71294 397.9797,-410.69058 82.258,-32.93865 164.9903,-48.80507 254.5,-48.80809 76.6763,-0.003 147.6496,11.72565 220,36.3547 161.1543,54.85913 299.6985,171.00967 384.736,322.54907 61.4196,109.4515 92.8546,230.6933 92.8452,358.0949 -0.01,89.7815 -16.0416,177.0893 -47.6911,259.6707 -66.5946,173.7618 -196.6874,314.5322 -361.8901,391.5927 -97.2693,45.3723 -201.1011,66.6806 -310,63.6179 z m 68.847,-74.4084 c 54.6471,-4.4327 104.2715,-14.7861 154.153,-32.1617 204.9409,-71.3887 360.7279,-249.2704 408.3907,-466.3112 15.9794,-72.7653 19.507,-152.5271 10.0614,-227.5 -22.1245,-175.61 -114.4315,-334.1084 -255.3396,-438.4384 -83.5179,-61.83754 -181.1646,-101.45374 -283.5292,-115.03034 -51.424,-6.8204 -110.6865,-6.8105 -162.4204,0.027 -182.4842,24.1186 -345.7516,130.86544 -445.9619,291.57704 -48.8954,78.4155 -81.0493,169.2504 -92.6707,261.7942 -6.8326,54.4099 -6.8247,114.8479 0.022,169.0705 22.168,175.5561 114.6892,334.5711 254.9475,438.175 93.1965,68.841 200.0945,109.0366 315.8037,118.748 22.513,1.8895 73.5386,1.9159 96.5433,0.05 z m 134.3934,-147.8041 c -2.4375,-1.9955 -2.8849,-3.3047 -3.8326,-11.214 -0.5901,-4.9252 -1.33,-9.6298 -1.6441,-10.4548 -0.3142,-0.825 -0.7528,-2.5903 -0.9748,-3.9229 -0.222,-1.3327 -0.8538,-3.2641 -1.404,-4.2922 -0.5502,-1.028 -1.4156,-7.8127 -1.923,-15.077 -1.1782,-16.8657 -2.3523,-25.1024 -4.3595,-30.5836 -0.8813,-2.4067 -1.6024,-5.3542 -1.6024,-6.55 0,-1.1959 -0.4801,-2.6544 -1.0669,-3.2412 -0.5974,-0.5974 -1.2728,-6.9559 -1.5347,-14.45 -0.6488,-18.5594 -2.8188,-29.6646 -6.9986,-35.8158 -1.3199,-1.9424 -2.3998,-4.5595 -2.3998,-5.8159 0,-1.2563 -1.1491,-8.0143 -2.5535,-15.0178 -1.4044,-7.0035 -2.6991,-15.9056 -2.8771,-19.7825 -0.3252,-7.0834 -2.7161,-13.6681 -5.932,-16.3371 -0.8299,-0.6887 -1.7974,-2.5659 -2.1501,-4.1716 -0.3526,-1.6057 -1.0566,-3.1762 -1.5642,-3.4899 -0.5077,-0.3138 -0.9231,-1.4067 -0.9231,-2.4286 0,-1.022 -0.8666,-3.8797 -1.9257,-6.3506 -1.0591,-2.4709 -2.1278,-5.7707 -2.3748,-7.3329 -1.5752,-9.9642 -4.4692,-19.9162 -7.8263,-26.9134 -2.1303,-4.4402 -3.8732,-8.6835 -3.8732,-9.4295 0,-1.8938 -3.8159,-13.6843 -5.9864,-18.4975 -0.9922,-2.2 -2.3324,-7.1416 -2.9783,-10.9814 -0.6459,-3.8397 -1.5461,-7.4397 -2.0003,-8 -3.809,-4.6982 -9.035,-18.8855 -9.035,-24.5279 0,-1.0163 -0.7243,-2.5722 -1.6096,-3.4574 -0.9641,-0.9642 -2.1471,-5.2079 -2.95,-10.5825 -0.7372,-4.9351 -2.0134,-10.2055 -2.836,-11.7119 -2.7161,-4.9742 -4.5211,-9.6745 -5.5882,-14.5522 -0.5792,-2.6473 -1.6677,-5.7973 -2.4189,-7 -0.7512,-1.2027 -2.0862,-5.4746 -2.9666,-9.4932 -0.8805,-4.0185 -2.2825,-7.9882 -3.1158,-8.8214 -0.8332,-0.8332 -1.5217,-2.7203 -1.53,-4.1935 -0.018,-3.1799 -2.0528,-9.3506 -3.7633,-11.4116 -1.5452,-1.8618 -3.5471,-10.9627 -3.6458,-16.5739 -0.079,-4.5134 -1.3781,-6.4254 -7.484,-11.0192 -2.4433,-1.8381 -3.1035,-3.0967 -3.1477,-6 -0.097,-6.3727 -2.9927,-11.4854 -9.9441,-17.5564 -3.575,-3.1223 -7.5125,-5.9373 -8.75,-6.2556 -1.2375,-0.3183 -2.25,-1.1893 -2.25,-1.9355 0,-0.7462 -1.2876,-2.835 -2.8613,-4.6416 -1.5738,-1.8066 -3.6103,-4.7473 -4.5257,-6.5348 -0.9154,-1.7875 -2.3278,-3.25 -3.1387,-3.25 -0.8109,0 -1.4743,-0.4717 -1.4743,-1.0483 0,-0.5765 -1.2375,-1.5906 -2.75,-2.2536 -1.5125,-0.6629 -4.0081,-2.0564 -5.5457,-3.0967 -2.3595,-1.5962 -3.3738,-1.7253 -6.5,-0.8271 -2.0374,0.5854 -7.3043,1.8268 -11.7043,2.7587 -4.4,0.9319 -10.7,2.3164 -14,3.0767 -3.3,0.7603 -10.275,1.8395 -15.5,2.3983 -5.225,0.5588 -10.85,1.4531 -12.5,1.9873 -1.65,0.5342 -8.175,2.1307 -14.5,3.5477 -6.325,1.417 -14.2,3.239 -17.5,4.0489 -3.3,0.81 -11.625,1.8896 -18.5,2.3991 -19.2907,1.4297 -22.2524,2.2014 -41.7972,10.8916 -10.0412,4.4646 -18.6745,8.1174 -19.1851,8.1174 -0.5105,0 -5.5609,1.9586 -11.223,4.3524 -5.6621,2.3938 -12.7697,5.1663 -15.7947,6.1611 -3.025,0.9948 -8.2014,2.8311 -11.5032,4.0807 -3.3018,1.2495 -11.8518,4.2967 -19,6.7715 -7.1482,2.4748 -18.1718,6.3693 -24.4968,8.6543 -25.9953,9.3915 -39.6238,13.9499 -41.75,13.9645 -1.7976,0.012 -2.25,-0.5436 -2.25,-2.7649 0,-2.229 1.4377,-3.9792 7.25,-8.8253 3.9875,-3.3247 9.275,-7.4759 11.75,-9.225 2.475,-1.749 5.625,-4.018 7,-5.0421 3.5695,-2.6586 13.7425,-9.1272 14.3542,-9.1272 0.2833,0 5.4965,-2.6852 11.5848,-5.9671 10.5506,-5.6874 24.6213,-16.0158 21.8629,-16.0482 -0.9461,-0.011 -0.892,-0.3003 0.1981,-1.058 1.0693,-0.7432 -0.3665,-0.8504 -5,-0.3733 -3.575,0.3682 -6.95,0.9969 -7.5,1.3971 -0.55,0.4003 -4.6,1.513 -9,2.4727 -4.4,0.9597 -9.125,2.1463 -10.5,2.637 -1.375,0.4907 -7.45,1.8302 -13.5,2.9767 -6.05,1.1465 -12.0169,2.4995 -13.2598,3.0068 -3.3879,1.3828 -28.882,4.263 -31.6296,3.5734 -3.3886,-0.8505 -4.0773,-3.4915 -1.5985,-6.13 2.3588,-2.5108 24.4736,-14.4871 26.751,-14.4871 0.4729,0 1.7321,-0.8102 2.7983,-1.8005 2.0881,-1.9394 4.8103,-3.2823 7.8364,-3.866 1.0438,-0.2013 2.8931,-0.9212 4.1094,-1.5998 1.2164,-0.6785 6.984,-3.6135 12.817,-6.5222 5.8329,-2.9086 10.8727,-5.7211 11.1996,-6.25 0.3268,-0.5288 1.2908,-0.9615 2.1422,-0.9615 1.9612,0 14.7213,-6.0167 15.1673,-7.1518 0.1834,-0.4665 1.1633,-0.8482 2.1777,-0.8482 1.0143,0 6.1844,-2.25 11.489,-5 5.3046,-2.75 10.0907,-5 10.6358,-5 1.3886,0 22.2539,-10.0294 22.8642,-10.9902 0.275,-0.4329 2.1739,-1.2472 4.2197,-1.8095 2.0459,-0.5623 7.0014,-3.6499 11.0124,-6.8613 8.9441,-7.1613 12.1234,-9.5743 17.2593,-13.0994 2.1953,-1.5068 5.0313,-3.9575 6.3023,-5.4462 1.2711,-1.4886 4.6499,-4.0983 7.5086,-5.7994 8.4211,-5.0111 15.2162,-10.2224 18.8232,-14.4361 4.323,-5.0502 5.8765,-6.5747 15.3443,-15.0579 4.2968,-3.85 8.8535,-8.0125 10.1259,-9.25 1.2723,-1.2375 2.624,-2.25 3.0036,-2.25 0.3796,0 1.6376,-0.9228 2.7955,-2.0507 2.6795,-2.6101 10.1125,-8.3242 14.46,-11.1161 3.1243,-2.0064 3.2999,-2.4009 2.5557,-5.7438 -0.4395,-1.9742 -0.8675,-7.0215 -0.9512,-11.2164 -0.1256,-6.2959 -0.528,-8.0304 -2.3057,-9.9385 -1.1845,-1.2714 -2.1677,-2.7893 -2.1849,-3.3731 -0.017,-0.5838 -1.1121,-3.2681 -2.4331,-5.9651 -1.7755,-3.6247 -2.3159,-6.169 -2.072,-9.7547 0.1815,-2.6681 -0.08,-5.1047 -0.5819,-5.4147 -0.5016,-0.31 -1.5558,-1.9954 -2.3426,-3.7453 -1.6628,-3.6981 -4.9373,-7.6816 -6.3145,-7.6816 -0.5252,0 -2.1857,-0.9682 -3.69,-2.1515 -2.6032,-2.0476 -2.7041,-2.4457 -2.0909,-8.25 0.4228,-4.0023 0.1995,-7.3575 -0.6497,-9.7613 -1.6007,-4.5311 -7.2177,-10.8372 -9.653,-10.8372 -0.9957,0 -3.0133,-1.35 -4.4834,-3 -1.4702,-1.65 -3.0779,-3 -3.5727,-3 -0.4949,0 -3.8579,-2.8125 -7.4736,-6.25 -3.6156,-3.4375 -8.6684,-8.05 -11.2285,-10.25 -8.173,-7.0235 -24.1966,-23.3381 -24.8052,-25.2557 -0.3233,-1.0186 -2.5985,-3.1229 -5.056,-4.6762 -2.4575,-1.5534 -4.7223,-3.6251 -5.0329,-4.6038 -0.3107,-0.9788 -1.1948,-2.0213 -1.9647,-2.3167 -3.9357,-1.5103 -15.6199,-12.4078 -18.008,-16.7955 -1.7149,-3.1508 -3.4987,-5.0606 -5.1027,-5.4632 -1.3563,-0.3404 -2.92,-1.4672 -3.4749,-2.5039 -0.5548,-1.0368 -1.5869,-1.885 -2.2936,-1.885 -0.7066,0 -3.1086,-1.9125 -5.3378,-4.25 -2.2292,-2.3375 -5.5171,-5.3439 -7.3066,-6.6809 -1.7895,-1.337 -3.8457,-3.8479 -4.5692,-5.5796 -0.7236,-1.7318 -2.0166,-3.7305 -2.8734,-4.4416 -0.8568,-0.711 -1.5578,-2.1199 -1.5578,-3.1309 0,-1.011 -0.7043,-2.4184 -1.5652,-3.1276 -1.5788,-1.3006 -7.9021,-7.0186 -18.9368,-17.1242 -3.9439,-3.6118 -7.1808,-7.7948 -9.4397,-12.199 -2.519,-4.9114 -4.1884,-6.9642 -6.2468,-7.6818 -1.545,-0.5386 -2.5523,-1.3948 -2.2383,-1.9028 0.3139,-0.5079 -1.0204,-1.5883 -2.9652,-2.4009 -1.9447,-0.8126 -4.0154,-2.3735 -4.6016,-3.4687 -0.5861,-1.0952 -2.3625,-2.6619 -3.9475,-3.4815 -1.5849,-0.8196 -5.5438,-4.0868 -8.7974,-7.2604 -3.2537,-3.1735 -7.3738,-6.9187 -9.1559,-8.3225 -2.4408,-1.9226 -3.3128,-3.4663 -3.5342,-6.2567 -0.3138,-3.955 -3.6641,-7.9508 -7.7551,-9.2492 -1.2365,-0.3924 -4.887,-3.3524 -8.1122,-6.5776 -3.2253,-3.2253 -6.3952,-5.8641 -7.0443,-5.8641 -0.6491,0 -2.3006,-1.0171 -3.67,-2.2603 -4.9783,-4.5194 -10.5666,-8.5415 -13.9898,-10.0689 -1.925,-0.8589 -4.625,-2.2389 -6,-3.0667 -1.375,-0.8277 -4.171,-2.2457 -6.2132,-3.151 -2.0423,-0.9054 -3.9709,-2.4579 -4.2859,-3.4502 -0.3149,-0.9922 -1.6289,-2.0692 -2.92,-2.3932 -1.2911,-0.3241 -3.8625,-2.0072 -5.7142,-3.7402 -3.6898,-3.4534 -10.9973,-8.4015 -11.9976,-8.1239 -0.347,0.096 -1.4293,-0.7071 -2.405,-1.7853 -0.9757,-1.0782 -2.328,-1.9603 -3.0051,-1.9603 -1.8221,0 -12.4642,-10.2906 -12.4272,-12.0167 0.057,-2.6606 2.4943,-4.8038 6.2678,-5.5117 2.0352,-0.3818 3.7004,-1.1343 3.7004,-1.6722 0,-2.7626 46.2296,2.5166 52.6843,6.0163 1.2013,0.6514 4.2774,1.1843 6.8358,1.1843 5.2722,0 16.5709,2.4958 20.8109,4.597 1.5571,0.7717 4.2635,1.403 6.0142,1.403 1.7506,0 5.6517,0.9435 8.6689,2.0966 3.0173,1.1532 7.0609,2.4272 8.9859,2.8313 1.925,0.404 4.9402,1.4855 6.7003,2.4034 1.7602,0.9178 4.4726,1.6687 6.0275,1.6687 1.555,0 3.7148,0.6079 4.7997,1.3509 1.0849,0.743 4.6725,2.137 7.9725,3.0977 3.3,0.9607 8.25,2.7732 11,4.0278 10.726,4.8932 12.3732,5.5236 14.4325,5.5236 1.1717,0 2.3764,0.6414 2.6772,1.4253 0.3008,0.784 2.2858,1.7192 4.4111,2.0782 2.1252,0.3591 4.3887,1.285 5.03,2.0577 0.6413,0.7727 3.5922,2.1697 6.5576,3.1045 2.9654,0.9347 5.3916,2.0186 5.3916,2.4085 0,0.3899 1.1371,0.9944 2.5269,1.3432 1.3898,0.3488 4.7021,1.9726 7.3606,3.6084 2.6585,1.6358 5.3363,2.9742 5.9506,2.9742 0.6142,0 3.7145,1.4242 6.8894,3.1649 3.1749,1.7406 6.7642,3.0974 7.9763,3.015 1.2121,-0.082 2.7871,0.6792 3.5,1.6925 1.2624,1.7943 16.2423,10.1276 18.2052,10.1276 0.9582,0 8.5932,4.8717 9.591,6.1198 0.275,0.3439 3.8686,2.3168 7.9858,4.3841 4.1171,2.0673 7.9421,4.3395 8.5,5.0493 0.5578,0.7099 4.1642,2.9473 8.0142,4.9721 3.85,2.0248 7.45,4.2161 8,4.8697 0.55,0.6536 2.8,2.2549 5,3.5584 2.2,1.3036 4.9,3.1383 6,4.0771 1.1,0.9389 3.2389,2 4.7531,2.3581 1.5143,0.3581 4.8098,2.6216 7.3233,5.03 2.5136,2.4085 7.5139,5.8282 11.1118,7.5995 4.1312,2.0337 7.1442,4.2808 8.1768,6.0982 0.8992,1.5828 2.985,3.3464 4.635,3.9193 1.65,0.5728 5.475,2.5988 8.5,4.5023 3.025,1.9034 6.9463,4.1353 8.7139,4.9598 1.7677,0.8244 3.6684,2.3482 4.2239,3.3861 0.8479,1.5842 7.6461,6.6581 14.2241,10.6162 0.9141,0.55 3.7491,2.4625 6.3002,4.25 2.551,1.7875 4.8596,3.25 5.1302,3.25 0.5729,0 2.7439,1.7505 5.3068,4.2787 0.9917,0.9784 2.7973,1.9702 4.0123,2.2042 2.8183,0.5428 7.3989,4.2028 16.4113,13.1131 3.9475,3.9029 8.2024,7.6379 9.4553,8.3002 1.2529,0.6623 1.9993,1.6551 1.6586,2.2063 -0.3406,0.5513 0.7452,1.5173 2.413,2.1468 1.7257,0.6514 3.2707,2.094 3.5854,3.3478 0.3219,1.2823 1.8093,2.641 3.559,3.251 1.6533,0.5763 3.006,1.4996 3.006,2.0517 0,0.5522 1.5183,2.4881 3.374,4.3021 1.8557,1.8139 4.336,5.4226 5.5119,8.0193 1.1758,2.5966 3.0325,5.1999 4.126,5.7851 1.0934,0.5853 1.9881,1.9512 1.9881,3.0355 0,1.0843 1.1373,2.9603 2.5274,4.1689 1.39,1.2087 3.7147,4.5426 5.166,7.4088 1.4513,2.8662 5.0637,8.2353 8.0276,11.9314 2.9639,3.6961 5.1579,7.3223 4.8755,8.0582 -0.2824,0.7359 0.038,1.6874 0.7129,2.1145 0.6745,0.427 2.2632,4.3764 3.5304,8.7764 1.2672,4.4 2.7217,8.15 3.2321,8.3333 0.5105,0.1834 0.9281,1.8227 0.9281,3.643 0,1.95 0.5884,3.5355 1.4324,3.8594 0.7878,0.3023 1.5753,1.9934 1.75,3.7581 0.5736,5.7948 4.5354,7.2024 27.0251,9.6018 2.9964,0.3197 6.2679,-0.077 9,-1.0905 3.1644,-1.1741 9.245,-1.7073 23.137,-2.0287 20.343,-0.4706 23.2346,0.045 34.1555,6.0879 7.9873,4.4198 14.7928,7.3357 17.1208,7.3357 2.0249,0 2.3792,0.4914 2.3792,3.3 0,1.815 -0.4137,3.7275 -0.9193,4.25 -0.956,0.9879 -4.3472,14.6268 -5.582,22.45 -0.4492,2.846 -2.0839,6.3378 -4.4475,9.5 -2.0555,2.75 -4.6984,7.1731 -5.873,9.8291 -2.2117,5.001 -12.7943,19.1645 -17.813,23.8405 -1.5758,1.4683 -5.8794,5.4507 -9.5634,8.8497 l -6.6982,6.1801 2.5811,3.9003 c 1.4196,2.1452 3.0838,3.9024 3.6982,3.9051 2.1116,0.01 8.2104,6.5237 10.4625,11.1758 1.2401,2.5617 2.9072,5.1991 3.7046,5.8609 0.7975,0.6619 1.45,1.8492 1.45,2.6385 0,0.7893 1.1161,3.4342 2.4802,5.8776 1.3641,2.4433 2.2565,4.4424 1.9831,4.4424 -1.0024,0 4.3854,9.5587 6.4286,11.405 1.1595,1.0477 2.1081,2.8053 2.1081,3.9056 0,1.1003 1.1244,3.4748 2.4988,5.2767 1.3743,1.8018 2.9988,4.5443 3.6101,6.0944 2.1808,5.5304 6.8794,23.872 6.8852,26.8772 0,1.6823 0.6666,3.9323 1.4741,5 0.8075,1.0676 1.4825,3.1413 1.5,4.6082 0.018,1.4669 0.9318,4.7667 2.0318,7.3329 1.1,2.5662 2.0058,6.541 2.0129,8.8329 0.01,2.2919 0.9071,7.0197 2,10.5062 1.4149,4.5137 1.9871,9.1537 1.9871,16.1135 0,5.3759 0.4365,12.076 0.97,14.889 0.5334,2.8131 1.4371,10.187 2.0081,16.3865 0.571,6.1996 1.4768,13.7469 2.0129,16.7719 2.0574,11.609 5.739,40.3526 7.5571,59 2.8787,29.5258 4.8246,90.6458 3.4384,108 -0.5052,6.325 -1.149,17.125 -1.4306,24 -0.675,16.4757 -2.1035,32.4176 -3.4061,38.0093 -0.5777,2.4801 -1.5664,8.7801 -2.1971,14 -0.6307,5.2199 -1.5405,9.9716 -2.0217,10.5594 -0.4812,0.5878 -1.0706,3.0628 -1.3098,5.5 -0.6889,7.02 -1.6782,12.1542 -3.0698,15.9313 -0.7093,1.925 -1.6085,5.75 -1.9984,8.5 -0.3899,2.75 -1.3488,5.9967 -2.1309,7.2148 -0.7822,1.2182 -1.4221,3.6998 -1.4221,5.5148 0,1.815 -0.9086,4.9952 -2.0191,7.0671 -1.1104,2.072 -2.6622,6.5244 -3.4484,9.8943 -0.7861,3.37 -1.856,6.3931 -2.3774,6.7181 -0.5215,0.325 -1.4894,2.6159 -2.151,5.0909 -1.3156,4.922 -5.5287,14.4079 -12.7907,28.7983 -4.0314,7.9886 -5.3102,9.6437 -9.0788,11.75 -5.3227,2.975 -5.8986,2.9823 -9.3942,0.1205 z"
       id="path179" />
  </g>
</svg>
